<svg xmlns="http://www.w3.org/2000/svg" width="1200" height="900" viewBox="0 0 800 600" role="img" aria-labelledby="title desc">
  <title>Dhaka Topi and Scarf Set</title>
  <desc>Traditional Nepali woven cap and matching scarf</desc>
  <defs>
    <linearGradient id="bg" x1="0" y1="0" x2="1" y2="1">
      <stop offset="0%" stop-color="#f6efe3"/>
      <stop offset="100%" stop-color="#eadfce"/>
    </linearGradient>
  </defs>
  <rect width="800" height="600" fill="url(#bg)"/>
  <circle cx="115" cy="98" r="72" fill="#f0dfca" opacity="0.8"/>
  <circle cx="685" cy="508" r="92" fill="#efe4d2" opacity="0.8"/>
  <text x="60" y="74" font-size="16" font-family="Georgia, serif" letter-spacing="4" fill="#b86245">HANDICRAFT NEPAL</text>
  <text x="60" y="112" font-size="38" font-family="Georgia, serif" font-weight="700" fill="#2f1f19">Dhaka Topi and Scarf Set</text>
  <text x="60" y="142" font-size="18" font-family="Arial, sans-serif" fill="#6b4a35">Textiles</text>
  <g><path d="M255 325 Q305 205 400 190 Q495 205 545 325 Z" fill="#b86245"/><path d="M305 288 L350 235 L402 282 L452 235 L495 285" stroke="#f3dfc8" stroke-width="10" fill="none"/><path d="M285 325 H515" stroke="#2f1f19" stroke-width="8"/><rect x="560" y="205" width="95" height="175" rx="20" fill="#d2a56c"/><path d="M575 240 H640 M575 280 H640 M575 320 H640" stroke="#b86245" stroke-width="10"/><g stroke="#b86245" stroke-width="4"><line x1="570" y1="380" x2="570" y2="418"/><line x1="582" y1="380" x2="582" y2="418"/><line x1="594" y1="380" x2="594" y2="418"/><line x1="606" y1="380" x2="606" y2="418"/><line x1="618" y1="380" x2="618" y2="418"/><line x1="630" y1="380" x2="630" y2="418"/></g></g>
  <text x="60" y="520" font-size="22" font-family="Arial, sans-serif" fill="#6b4a35">Traditional Nepali woven cap and matching scarf</text>
  <text x="60" y="558" font-size="16" font-family="Arial, sans-serif" fill="#8c674c">Handmade craft product image for the online store</text>
</svg>