<svg xmlns="http://www.w3.org/2000/svg" width="1200" height="900" viewBox="0 0 800 600" role="img" aria-labelledby="title desc">
  <title>Felted Wool Slippers</title>
  <desc>Soft handcrafted wool slippers</desc>
  <defs>
    <linearGradient id="bg" x1="0" y1="0" x2="1" y2="1">
      <stop offset="0%" stop-color="#f6efe3"/>
      <stop offset="100%" stop-color="#eadfce"/>
    </linearGradient>
  </defs>
  <rect width="800" height="600" fill="url(#bg)"/>
  <circle cx="115" cy="98" r="72" fill="#f0dfca" opacity="0.8"/>
  <circle cx="685" cy="508" r="92" fill="#efe4d2" opacity="0.8"/>
  <text x="60" y="74" font-size="16" font-family="Georgia, serif" letter-spacing="4" fill="#b86245">HANDICRAFT NEPAL</text>
  <text x="60" y="112" font-size="38" font-family="Georgia, serif" font-weight="700" fill="#2f1f19">Felted Wool Slippers</text>
  <text x="60" y="142" font-size="18" font-family="Arial, sans-serif" fill="#6b4a35">Felt &amp; Decor</text>
  <g><path d="M285 315 Q310 255 390 285 Q430 305 435 360 Q390 390 320 375 Q285 365 285 315 Z" fill="#7a8f69"/><path d="M420 330 Q445 270 525 300 Q565 320 570 375 Q525 405 455 390 Q420 380 420 330 Z" fill="#b86245"/></g>
  <text x="60" y="520" font-size="22" font-family="Arial, sans-serif" fill="#6b4a35">Soft handcrafted wool slippers</text>
  <text x="60" y="558" font-size="16" font-family="Arial, sans-serif" fill="#8c674c">Handmade craft product image for the online store</text>
</svg>